  0
SECTION
  2
HEADER
  9
$ACADVER
  1
AC1024
  9
$ACADMAINTVER
 70
6
  9
$DWGCODEPAGE
  3
ANSI_1252
  9
$LASTSAVEDBY
  1
ezdxf
  9
$INSBASE
 10
0.0
 20
0.0
 30
0.0
  9
$EXTMIN
 10
1e+20
 20
1e+20
 30
1e+20
  9
$EXTMAX
 10
-1e+20
 20
-1e+20
 30
-1e+20
  9
$LIMMIN
 10
0.0
 20
0.0
  9
$LIMMAX
 10
420.0
 20
297.0
  9
$ORTHOMODE
 70
0
  9
$REGENMODE
 70
1
  9
$FILLMODE
 70
1
  9
$QTEXTMODE
 70
0
  9
$MIRRTEXT
 70
1
  9
$LTSCALE
 40
1.0
  9
$ATTMODE
 70
1
  9
$TEXTSIZE
 40
2.5
  9
$TRACEWID
 40
1.0
  9
$TEXTSTYLE
  7
Standard
  9
$CLAYER
  8
0
  9
$CELTYPE
  6
ByLayer
  9
$CECOLOR
 62
256
  9
$CELTSCALE
 40
1.0
  9
$DISPSILH
 70
0
  9
$DIMSCALE
 40
1.0
  9
$DIMASZ
 40
2.5
  9
$DIMEXO
 40
0.625
  9
$DIMDLI
 40
3.75
  9
$DIMRND
 40
0.0
  9
$DIMDLE
 40
0.0
  9
$DIMEXE
 40
1.25
  9
$DIMTP
 40
0.0
  9
$DIMTM
 40
0.0
  9
$DIMTXT
 40
2.5
  9
$DIMCEN
 40
2.5
  9
$DIMTSZ
 40
0.0
  9
$DIMTOL
 70
0
  9
$DIMLIM
 70
0
  9
$DIMTIH
 70
0
  9
$DIMTOH
 70
0
  9
$DIMSE1
 70
0
  9
$DIMSE2
 70
0
  9
$DIMTAD
 70
1
  9
$DIMZIN
 70
8
  9
$DIMBLK
  1

  9
$DIMASO
 70
1
  9
$DIMSHO
 70
1
  9
$DIMPOST
  1

  9
$DIMAPOST
  1

  9
$DIMALT
 70
0
  9
$DIMALTD
 70
3
  9
$DIMALTF
 40
0.03937007874
  9
$DIMLFAC
 40
1.0
  9
$DIMTOFL
 70
1
  9
$DIMTVP
 40
0.0
  9
$DIMTIX
 70
0
  9
$DIMSOXD
 70
0
  9
$DIMSAH
 70
0
  9
$DIMBLK1
  1

  9
$DIMBLK2
  1

  9
$DIMSTYLE
  2
ISO-25
  9
$DIMCLRD
 70
0
  9
$DIMCLRE
 70
0
  9
$DIMCLRT
 70
0
  9
$DIMTFAC
 40
1.0
  9
$DIMGAP
 40
0.625
  9
$DIMJUST
 70
0
  9
$DIMSD1
 70
0
  9
$DIMSD2
 70
0
  9
$DIMTOLJ
 70
0
  9
$DIMTZIN
 70
8
  9
$DIMALTZ
 70
0
  9
$DIMALTTZ
 70
0
  9
$DIMUPT
 70
0
  9
$DIMDEC
 70
2
  9
$DIMTDEC
 70
2
  9
$DIMALTU
 70
2
  9
$DIMALTTD
 70
3
  9
$DIMTXSTY
  7
Standard
  9
$DIMAUNIT
 70
0
  9
$DIMADEC
 70
0
  9
$DIMALTRND
 40
0.0
  9
$DIMAZIN
 70
0
  9
$DIMDSEP
 70
44
  9
$DIMATFIT
 70
3
  9
$DIMFRAC
 70
0
  9
$DIMLDRBLK
  1

  9
$DIMLUNIT
 70
2
  9
$DIMLWD
 70
-2
  9
$DIMLWE
 70
-2
  9
$DIMTMOVE
 70
0
  9
$DIMFXL
 40
1.0
  9
$DIMFXLON
 70
0
  9
$DIMJOGANG
 40
0.785398163397
  9
$DIMTFILL
 70
0
  9
$DIMTFILLCLR
 70
0
  9
$DIMARCSYM
 70
0
  9
$DIMLTYPE
  6

  9
$DIMLTEX1
  6

  9
$DIMLTEX2
  6

  9
$DIMTXTDIRECTION
 70
0
  9
$LUNITS
 70
2
  9
$LUPREC
 70
4
  9
$SKETCHINC
 40
1.0
  9
$FILLETRAD
 40
10.0
  9
$AUNITS
 70
0
  9
$AUPREC
 70
2
  9
$MENU
  1
.
  9
$ELEVATION
 40
0.0
  9
$PELEVATION
 40
0.0
  9
$THICKNESS
 40
0.0
  9
$LIMCHECK
 70
0
  9
$CHAMFERA
 40
0.0
  9
$CHAMFERB
 40
0.0
  9
$CHAMFERC
 40
0.0
  9
$CHAMFERD
 40
0.0
  9
$SKPOLY
 70
0
  9
$TDCREATE
 40
2451544.5
  9
$TDUCREATE
 40
2458532.153996898
  9
$TDUPDATE
 40
2461306.338460648
  9
$TDUUPDATE
 40
2458532.1544311
  9
$TDINDWG
 40
0.0
  9
$TDUSRTIMER
 40
0.0
  9
$USRTIMER
 70
1
  9
$ANGBASE
 50
0.0
  9
$ANGDIR
 70
0
  9
$PDMODE
 70
0
  9
$PDSIZE
 40
0.0
  9
$PLINEWID
 40
0.0
  9
$SPLFRAME
 70
0
  9
$SPLINETYPE
 70
6
  9
$SPLINESEGS
 70
8
  9
$HANDSEED
  5
C5
  9
$SURFTAB1
 70
6
  9
$SURFTAB2
 70
6
  9
$SURFTYPE
 70
6
  9
$SURFU
 70
6
  9
$SURFV
 70
6
  9
$UCSBASE
  2

  9
$UCSNAME
  2

  9
$UCSORG
 10
0.0
 20
0.0
 30
0.0
  9
$UCSXDIR
 10
1.0
 20
0.0
 30
0.0
  9
$UCSYDIR
 10
0.0
 20
1.0
 30
0.0
  9
$UCSORTHOREF
  2

  9
$UCSORTHOVIEW
 70
0
  9
$UCSORGTOP
 10
0.0
 20
0.0
 30
0.0
  9
$UCSORGBOTTOM
 10
0.0
 20
0.0
 30
0.0
  9
$UCSORGLEFT
 10
0.0
 20
0.0
 30
0.0
  9
$UCSORGRIGHT
 10
0.0
 20
0.0
 30
0.0
  9
$UCSORGFRONT
 10
0.0
 20
0.0
 30
0.0
  9
$UCSORGBACK
 10
0.0
 20
0.0
 30
0.0
  9
$PUCSBASE
  2

  9
$PUCSNAME
  2

  9
$PUCSORG
 10
0.0
 20
0.0
 30
0.0
  9
$PUCSXDIR
 10
1.0
 20
0.0
 30
0.0
  9
$PUCSYDIR
 10
0.0
 20
1.0
 30
0.0
  9
$PUCSORTHOREF
  2

  9
$PUCSORTHOVIEW
 70
0
  9
$PUCSORGTOP
 10
0.0
 20
0.0
 30
0.0
  9
$PUCSORGBOTTOM
 10
0.0
 20
0.0
 30
0.0
  9
$PUCSORGLEFT
 10
0.0
 20
0.0
 30
0.0
  9
$PUCSORGRIGHT
 10
0.0
 20
0.0
 30
0.0
  9
$PUCSORGFRONT
 10
0.0
 20
0.0
 30
0.0
  9
$PUCSORGBACK
 10
0.0
 20
0.0
 30
0.0
  9
$USERI1
 70
0
  9
$USERI2
 70
0
  9
$USERI3
 70
0
  9
$USERI4
 70
0
  9
$USERI5
 70
0
  9
$USERR1
 40
0.0
  9
$USERR2
 40
0.0
  9
$USERR3
 40
0.0
  9
$USERR4
 40
0.0
  9
$USERR5
 40
0.0
  9
$WORLDVIEW
 70
1
  9
$SHADEDGE
 70
3
  9
$SHADEDIF
 70
70
  9
$TILEMODE
 70
1
  9
$MAXACTVP
 70
64
  9
$PINSBASE
 10
0.0
 20
0.0
 30
0.0
  9
$PLIMCHECK
 70
0
  9
$PEXTMIN
 10
1e+20
 20
1e+20
 30
1e+20
  9
$PEXTMAX
 10
-1e+20
 20
-1e+20
 30
-1e+20
  9
$PLIMMIN
 10
0.0
 20
0.0
  9
$PLIMMAX
 10
420.0
 20
297.0
  9
$UNITMODE
 70
0
  9
$VISRETAIN
 70
1
  9
$PLINEGEN
 70
0
  9
$PSLTSCALE
 70
1
  9
$TREEDEPTH
 70
3020
  9
$CMLSTYLE
  2
Standard
  9
$CMLJUST
 70
0
  9
$CMLSCALE
 40
20.0
  9
$PROXYGRAPHICS
 70
1
  9
$MEASUREMENT
 70
1
  9
$CELWEIGHT
370
-1
  9
$ENDCAPS
280
0
  9
$JOINSTYLE
280
0
  9
$LWDISPLAY
290
0
  9
$INSUNITS
 70
4
  9
$HYPERLINKBASE
  1

  9
$STYLESHEET
  1

  9
$XEDIT
290
1
  9
$CEPSNTYPE
380
0
  9
$PSTYLEMODE
290
1
  9
$FINGERPRINTGUID
  2
{00000000-0000-0000-0000-000000000001}
  9
$VERSIONGUID
  2
{00000000-0000-0000-0000-000000000002}
  9
$EXTNAMES
290
1
  9
$PSVPSCALE
 40
0.0
  9
$OLESTARTUP
290
0
  9
$SORTENTS
280
127
  9
$INDEXCTL
280
0
  9
$HIDETEXT
280
1
  9
$XCLIPFRAME
280
1
  9
$HALOGAP
280
0
  9
$OBSCOLOR
 70
257
  9
$OBSLTYPE
280
0
  9
$INTERSECTIONDISPLAY
280
0
  9
$INTERSECTIONCOLOR
 70
257
  9
$DIMASSOC
280
2
  9
$PROJECTNAME
  1

  9
$CAMERADISPLAY
290
0
  9
$LENSLENGTH
 40
50.0
  9
$CAMERAHEIGHT
 40
0.0
  9
$STEPSPERSEC
 40
24.0
  9
$STEPSIZE
 40
100.0
  9
$3DDWFPREC
 40
2.0
  9
$PSOLWIDTH
 40
0.005
  9
$PSOLHEIGHT
 40
0.08
  9
$LOFTANG1
 40
1.570796326795
  9
$LOFTANG2
 40
1.570796326795
  9
$LOFTMAG1
 40
0.0
  9
$LOFTMAG2
 40
0.0
  9
$LOFTPARAM
 70
7
  9
$LOFTNORMALS
280
1
  9
$LATITUDE
 40
37.795
  9
$LONGITUDE
 40
-122.394
  9
$NORTHDIRECTION
 40
0.0
  9
$TIMEZONE
 70
-8000
  9
$LIGHTGLYPHDISPLAY
280
1
  9
$TILEMODELIGHTSYNCH
280
1
  9
$CMATERIAL
347
20
  9
$SOLIDHIST
280
0
  9
$SHOWHIST
280
1
  9
$DWFFRAME
280
2
  9
$DGNFRAME
280
2
  9
$REALWORLDSCALE
290
1
  9
$INTERFERECOLOR
 62
256
  9
$CSHADOW
280
0
  9
$SHADOWPLANELOCATION
 40
0.0
  0
ENDSEC
  0
SECTION
  2
CLASSES
  0
CLASS
  1
ACDBDICTIONARYWDFLT
  2
AcDbDictionaryWithDefault
  3
ObjectDBX Classes
 90
0
 91
0
280
0
281
0
  0
CLASS
  1
SUN
  2
AcDbSun
  3
SCENEOE
 90
1153
 91
0
280
0
281
0
  0
CLASS
  1
VISUALSTYLE
  2
AcDbVisualStyle
  3
ObjectDBX Classes
 90
4095
 91
0
280
0
281
0
  0
CLASS
  1
MATERIAL
  2
AcDbMaterial
  3
ObjectDBX Classes
 90
1153
 91
0
280
0
281
0
  0
CLASS
  1
SCALE
  2
AcDbScale
  3
ObjectDBX Classes
 90
1153
 91
0
280
0
281
0
  0
CLASS
  1
TABLESTYLE
  2
AcDbTableStyle
  3
ObjectDBX Classes
 90
4095
 91
0
280
0
281
0
  0
CLASS
  1
MLEADERSTYLE
  2
AcDbMLeaderStyle
  3
ACDB_MLEADERSTYLE_CLASS
 90
4095
 91
0
280
0
281
0
  0
CLASS
  1
DICTIONARYVAR
  2
AcDbDictionaryVar
  3
ObjectDBX Classes
 90
0
 91
0
280
0
281
0
  0
CLASS
  1
CELLSTYLEMAP
  2
AcDbCellStyleMap
  3
ObjectDBX Classes
 90
1152
 91
0
280
0
281
0
  0
CLASS
  1
MENTALRAYRENDERSETTINGS
  2
AcDbMentalRayRenderSettings
  3
SCENEOE
 90
1024
 91
0
280
0
281
0
  0
CLASS
  1
ACDBDETAILVIEWSTYLE
  2
AcDbDetailViewStyle
  3
ObjectDBX Classes
 90
1025
 91
0
280
0
281
0
  0
CLASS
  1
ACDBSECTIONVIEWSTYLE
  2
AcDbSectionViewStyle
  3
ObjectDBX Classes
 90
1025
 91
0
280
0
281
0
  0
CLASS
  1
RASTERVARIABLES
  2
AcDbRasterVariables
  3
ISM
 90
0
 91
0
280
0
281
0
  0
CLASS
  1
LAYOUT
  2
AcDbLayout
  3
ObjectDBX Classes
 90
0
 91
0
280
0
281
0
  0
CLASS
  1
ACDBPLACEHOLDER
  2
AcDbPlaceHolder
  3
ObjectDBX Classes
 90
0
 91
0
280
0
281
0
  0
ENDSEC
  0
SECTION
  2
TABLES
  0
TABLE
  2
VPORT
  5
8
330
0
100
AcDbSymbolTable
 70
1
  0
VPORT
  5
23
330
8
100
AcDbSymbolTableRecord
100
AcDbViewportTableRecord
  2
*Active
 70
0
 10
0.0
 20
0.0
 11
1.0
 21
1.0
 12
0.0
 22
0.0
 13
0.0
 23
0.0
 14
0.5
 24
0.5
 15
0.5
 25
0.5
 16
0.0
 26
0.0
 36
1.0
 17
0.0
 27
0.0
 37
0.0
 40
1000.0
 41
1.34
 42
50.0
 43
0.0
 44
0.0
 50
0.0
 51
0.0
 71
0
 72
1000
 73
1
 74
3
 75
0
 76
0
 77
0
 78
0
281
0
 65
0
146
0.0
  0
ENDTAB
  0
TABLE
  2
LTYPE
  5
2
330
0
100
AcDbSymbolTable
 70
3
  0
LTYPE
  5
24
330
2
100
AcDbSymbolTableRecord
100
AcDbLinetypeTableRecord
  2
ByBlock
 70
0
  3

 72
65
 73
0
 40
0.0
  0
LTYPE
  5
25
330
2
100
AcDbSymbolTableRecord
100
AcDbLinetypeTableRecord
  2
ByLayer
 70
0
  3

 72
65
 73
0
 40
0.0
  0
LTYPE
  5
26
330
2
100
AcDbSymbolTableRecord
100
AcDbLinetypeTableRecord
  2
Continuous
 70
0
  3

 72
65
 73
0
 40
0.0
  0
ENDTAB
  0
TABLE
  2
LAYER
  5
1
330
0
100
AcDbSymbolTable
 70
2
  0
LAYER
  5
27
330
1
100
AcDbSymbolTableRecord
100
AcDbLayerTableRecord
  2
0
 70
0
 62
7
  6
Continuous
370
-3
390
13
347
21
  0
LAYER
  5
28
330
1
100
AcDbSymbolTableRecord
100
AcDbLayerTableRecord
  2
Defpoints
 70
0
 62
7
  6
Continuous
290
0
370
-3
390
13
347
21
  0
ENDTAB
  0
TABLE
  2
STYLE
  5
5
330
0
100
AcDbSymbolTable
 70
1
  0
STYLE
  5
29
330
5
100
AcDbSymbolTableRecord
100
AcDbTextStyleTableRecord
  2
Standard
 70
0
 40
0.0
 41
1.0
 50
0.0
 71
0
 42
2.5
  3
txt
  4

  0
ENDTAB
  0
TABLE
  2
VIEW
  5
7
330
0
100
AcDbSymbolTable
 70
0
  0
ENDTAB
  0
TABLE
  2
UCS
  5
6
330
0
100
AcDbSymbolTable
 70
0
  0
ENDTAB
  0
TABLE
  2
APPID
  5
3
330
0
100
AcDbSymbolTable
 70
3
  0
APPID
  5
2A
330
3
100
AcDbSymbolTableRecord
100
AcDbRegAppTableRecord
  2
ACAD
 70
0
  0
APPID
  5
C2
330
3
100
AcDbSymbolTableRecord
100
AcDbRegAppTableRecord
  2
HATCHBACKGROUNDCOLOR
 70
0
  0
APPID
  5
C3
330
3
100
AcDbSymbolTableRecord
100
AcDbRegAppTableRecord
  2
EZDXF
 70
0
  0
ENDTAB
  0
TABLE
  2
DIMSTYLE
  5
4
330
0
100
AcDbSymbolTable
 70
1
100
AcDbDimStyleTable
  0
DIMSTYLE
105
2B
330
4
100
AcDbSymbolTableRecord
100
AcDbDimStyleTableRecord
  2
Standard
 70
0
 40
1.0
 41
2.5
 42
0.625
 43
3.75
 44
1.25
 45
0.0
 46
0.0
 47
0.0
 48
0.0
 49
2.5
140
2.5
141
2.5
142
0.0
143
0.03937007874
144
1.0
145
0.0
146
1.0
147
0.625
148
0.0
 69
0
 70
0
 71
0
 72
0
 73
0
 74
0
 75
0
 76
0
 77
1
 78
8
 79
3
170
0
171
3
172
1
173
0
174
0
175
0
176
0
177
0
178
0
179
2
271
2
272
2
273
2
274
3
275
0
276
0
277
2
278
44
279
0
280
0
281
0
282
0
283
0
284
8
285
0
286
0
288
0
289
3
290
0
371
-2
372
-2
  0
ENDTAB
  0
TABLE
  2
BLOCK_RECORD
  5
9
330
0
100
AcDbSymbolTable
 70
2
  0
BLOCK_RECORD
  5
17
330
9
100
AcDbSymbolTableRecord
100
AcDbBlockTableRecord
  2
*Model_Space
340
1A
 70
0
280
1
281
0
  0
BLOCK_RECORD
  5
1B
330
9
100
AcDbSymbolTableRecord
100
AcDbBlockTableRecord
  2
*Paper_Space
340
1E
 70
0
280
1
281
0
  0
ENDTAB
  0
ENDSEC
  0
SECTION
  2
BLOCKS
  0
BLOCK
  5
18
330
17
100
AcDbEntity
  8
0
100
AcDbBlockBegin
  2
*Model_Space
 70
0
 10
0.0
 20
0.0
 30
0.0
  3
*Model_Space
  1

  0
ENDBLK
  5
19
330
17
100
AcDbEntity
  8
0
100
AcDbBlockEnd
  0
BLOCK
  5
1C
330
1B
100
AcDbEntity
  8
0
100
AcDbBlockBegin
  2
*Paper_Space
 70
0
 10
0.0
 20
0.0
 30
0.0
  3
*Paper_Space
  1

  0
ENDBLK
  5
1D
330
1B
100
AcDbEntity
  8
0
100
AcDbBlockEnd
  0
ENDSEC
  0
SECTION
  2
ENTITIES
  0
CIRCLE
  5
2F
330
17
100
AcDbEntity
  8
CUT
100
AcDbCircle
 10
0.0
 20
0.0
 30
0.0
 40
120.0
  0
LINE
  5
30
330
17
100
AcDbEntity
  8
ENGRAVE
100
AcDbLine
 10
0.0
 20
120.0
 30
0.0
 11
0.0
 21
120.0
 31
0.0
  0
LINE
  5
31
330
17
100
AcDbEntity
  8
ENGRAVE
100
AcDbLine
 10
5.059848934378976
 20
119.88578658982294
 30
0.0
 11
5.23432648384032
 21
119.88578658982294
 31
0.0
  0
LINE
  5
32
330
17
100
AcDbEntity
  8
ENGRAVE
100
AcDbLine
 10
10.110066158728348
 20
119.54336377100947
 30
0.0
 11
10.45868912971898
 21
119.54336377100947
 31
0.0
  0
LINE
  5
33
330
17
100
AcDbEntity
  8
ENGRAVE
100
AcDbLine
 10
15.141038297525983
 20
118.97338336485724
 30
0.0
 11
15.663143066406189
 21
118.97338336485724
 31
0.0
  0
LINE
  5
34
330
17
100
AcDbEntity
  8
ENGRAVE
100
AcDbLine
 10
20.143188609363918
 20
118.17693036146497
 30
0.0
 11
20.837781320031638
 21
118.17693036146497
 31
0.0
  0
LINE
  5
35
330
17
100
AcDbEntity
  8
ENGRAVE
100
AcDbLine
 10
25.106995216819932
 20
117.15552085439201
 30
0.0
 11
25.972753672572345
 21
117.15552085439201
 31
0.0
  0
LINE
  5
36
330
17
100
AcDbEntity
  8
ENGRAVE
100
AcDbLine
 10
28.987733051482323
 20
115.9110991546882
 30
0.0
 11
31.05828541230249
 21
115.9110991546882
 31
0.0
  0
LINE
  5
37
330
17
100
AcDbEntity
  8
ENGRAVE
100
AcDbLine
 10
34.88187274249568
 20
114.44603408978723
 30
0.0
 11
36.08469594051277
 21
114.44603408978723
 31
0.0
  0
LINE
  5
38
330
17
100
AcDbEntity
  8
ENGRAVE
100
AcDbLine
 10
39.67433662577757
 20
112.76311449430901
 30
0.0
 11
41.04241719908025
 21
112.76311449430901
 31
0.0
  0
LINE
  5
39
330
17
100
AcDbEntity
  8
ENGRAVE
100
AcDbLine
 10
44.39127815435042
 20
110.86554390135441
 30
0.0
 11
45.922011883810775
 21
110.86554390135441
 31
0.0
  0
LINE
  5
3A
330
17
100
AcDbEntity
  8
ENGRAVE
100
AcDbLine
 10
49.023718361921134
 20
108.756934444398
 30
0.0
 11
50.714191408883934
 21
108.756934444398
 31
0.0
  0
LINE
  5
3B
330
17
100
AcDbEntity
  8
ENGRAVE
100
AcDbLine
 10
53.562839135263935
 20
106.4412999813866
 30
0.0
 11
55.409833588204066
 21
106.4412999813866
 31
0.0
  0
LINE
  5
3C
330
17
100
AcDbEntity
  8
ENGRAVE
100
AcDbLine
 10
55.99999999999999
 20
103.92304845413264
 30
0.0
 11
59.99999999999999
 21
103.92304845413264
 31
0.0
  0
LINE
  5
3D
330
17
100
AcDbEntity
  8
ENGRAVE
100
AcDbLine
 10
62.32675456823156
 20
101.20697349754629
 30
0.0
 11
64.47595300161885
 21
101.20697349754629
 31
0.0
  0
LINE
  5
3E
330
17
100
AcDbEntity
  8
ENGRAVE
100
AcDbLine
 10
66.53486661672135
 20
98.29824531467902
 30
0.0
 11
68.82917236212552
 21
98.29824531467902
 31
0.0
  0
LINE
  5
3F
330
17
100
AcDbEntity
  8
ENGRAVE
100
AcDbLine
 10
70.6163257650116
 20
95.20240083494822
 30
0.0
 11
73.05137148104647
 21
95.20240083494822
 31
0.0
  0
LINE
  5
40
330
17
100
AcDbEntity
  8
ENGRAVE
100
AcDbLine
 10
74.56336272363855
 20
91.92533317427736
 30
0.0
 11
77.1345131623847
 21
91.92533317427736
 31
0.0
  0
LINE
  5
41
330
17
100
AcDbEntity
  8
ENGRAVE
100
AcDbLine
 10
78.36846408341658
 20
88.4732804172149
 30
0.0
 11
81.07082491387924
 21
88.4732804172149
 31
0.0
  0
LINE
  5
42
330
17
100
AcDbEntity
  8
ENGRAVE
100
AcDbLine
 10
79.19595949289332
 20
84.8528137423857
 30
0.0
 11
84.8528137423857
 21
84.8528137423857
 31
0.0
  0
LINE
  5
43
330
17
100
AcDbEntity
  8
ENGRAVE
100
AcDbLine
 10
85.5241710699744
 20
81.07082491387924
 30
0.0
 11
88.4732804172149
 21
81.07082491387924
 31
0.0
  0
LINE
  5
44
330
17
100
AcDbEntity
  8
ENGRAVE
100
AcDbLine
 10
88.86115540180145
 20
77.13451316238472
 30
0.0
 11
91.92533317427736
 21
77.13451316238472
 31
0.0
  0
LINE
  5
45
330
17
100
AcDbEntity
  8
ENGRAVE
100
AcDbLine
 10
92.02898747378327
 20
73.05137148104647
 30
0.0
 11
95.20240083494822
 21
73.05137148104647
 31
0.0
  0
LINE
  5
46
330
17
100
AcDbEntity
  8
ENGRAVE
100
AcDbLine
 10
95.02163713752304
 20
68.82917236212552
 30
0.0
 11
98.29824531467902
 21
68.82917236212552
 31
0.0
  0
LINE
  5
47
330
17
100
AcDbEntity
  8
ENGRAVE
100
AcDbLine
 10
97.83340771429474
 20
64.47595300161886
 30
0.0
 11
101.20697349754627
 21
64.47595300161886
 31
0.0
  0
LINE
  5
48
330
17
100
AcDbEntity
  8
ENGRAVE
100
AcDbLine
 10
96.99484522385713
 20
60.000000000000014
 30
0.0
 11
103.92304845413263
 21
60.000000000000014
 31
0.0
  0
LINE
  5
49
330
17
100
AcDbEntity
  8
ENGRAVE
100
AcDbLine
 10
102.89325664867371
 20
55.409833588204066
 30
0.0
 11
106.4412999813866
 21
55.409833588204066
 31
0.0
  0
LINE
  5
4A
330
17
100
AcDbEntity
  8
ENGRAVE
100
AcDbLine
 10
105.13170329625139
 20
50.714191408883934
 30
0.0
 11
108.756934444398
 21
50.714191408883934
 31
0.0
  0
LINE
  5
4B
330
17
100
AcDbEntity
  8
ENGRAVE
100
AcDbLine
 10
107.17002577130926
 20
45.92201188381078
 30
0.0
 11
110.86554390135441
 21
45.92201188381078
 31
0.0
  0
LINE
  5
4C
330
17
100
AcDbEntity
  8
ENGRAVE
100
AcDbLine
 10
109.00434401116536
 20
41.04241719908026
 30
0.0
 11
112.763114494309
 21
41.04241719908026
 31
0.0
  0
LINE
  5
4D
330
17
100
AcDbEntity
  8
ENGRAVE
100
AcDbLine
 10
110.63116628679433
 20
36.084695940512766
 30
0.0
 11
114.44603408978723
 21
36.084695940512766
 31
0.0
  0
LINE
  5
4E
330
17
100
AcDbEntity
  8
ENGRAVE
100
AcDbLine
 10
108.18369254437565
 20
31.05828541230249
 30
0.0
 11
115.9110991546882
 21
31.05828541230249
 31
0.0
  0
LINE
  5
4F
330
17
100
AcDbEntity
  8
ENGRAVE
100
AcDbLine
 10
113.25033682591227
 20
25.97275367257235
 30
0.0
 11
117.15552085439201
 21
25.97275367257235
 31
0.0
  0
LINE
  5
50
330
17
100
AcDbEntity
  8
ENGRAVE
100
AcDbLine
 10
114.23769934941613
 20
20.83778132003165
 30
0.0
 11
118.17693036146497
 21
20.83778132003165
 31
0.0
  0
LINE
  5
51
330
17
100
AcDbEntity
  8
ENGRAVE
100
AcDbLine
 10
115.007603919362
 20
15.663143066406205
 30
0.0
 11
118.97338336485724
 21
15.663143066406205
 31
0.0
  0
LINE
  5
52
330
17
100
AcDbEntity
  8
ENGRAVE
100
AcDbLine
 10
115.55858497864249
 20
10.458689129718977
 30
0.0
 11
119.54336377100947
 21
10.458689129718977
 31
0.0
  0
LINE
  5
53
330
17
100
AcDbEntity
  8
ENGRAVE
100
AcDbLine
 10
115.8895937034955
 20
5.234326483840321
 30
0.0
 11
119.88578658982294
 21
5.234326483840321
 31
0.0
  0
LINE
  5
54
330
17
100
AcDbEntity
  8
ENGRAVE
100
AcDbLine
 10
112.0
 20
7.34788079488412e-15
 30
0.0
 11
120.0
 21
7.34788079488412e-15
 31
0.0
  0
LINE
  5
55
330
17
100
AcDbEntity
  8
ENGRAVE
100
AcDbLine
 10
115.8895937034955
 20
-5.234326483840307
 30
0.0
 11
119.88578658982294
 21
-5.234326483840307
 31
0.0
  0
LINE
  5
56
330
17
100
AcDbEntity
  8
ENGRAVE
100
AcDbLine
 10
115.55858497864249
 20
-10.458689129718989
 30
0.0
 11
119.54336377100947
 21
-10.458689129718989
 31
0.0
  0
LINE
  5
57
330
17
100
AcDbEntity
  8
ENGRAVE
100
AcDbLine
 10
115.007603919362
 20
-15.663143066406192
 30
0.0
 11
118.97338336485724
 21
-15.663143066406192
 31
0.0
  0
LINE
  5
58
330
17
100
AcDbEntity
  8
ENGRAVE
100
AcDbLine
 10
114.23769934941613
 20
-20.837781320031638
 30
0.0
 11
118.17693036146497
 21
-20.837781320031638
 31
0.0
  0
LINE
  5
59
330
17
100
AcDbEntity
  8
ENGRAVE
100
AcDbLine
 10
113.25033682591227
 20
-25.972753672572335
 30
0.0
 11
117.15552085439201
 21
-25.972753672572335
 31
0.0
  0
LINE
  5
5A
330
17
100
AcDbEntity
  8
ENGRAVE
100
AcDbLine
 10
108.18369254437565
 20
-31.058285412302503
 30
0.0
 11
115.9110991546882
 21
-31.058285412302503
 31
0.0
  0
LINE
  5
5B
330
17
100
AcDbEntity
  8
ENGRAVE
100
AcDbLine
 10
110.63116628679433
 20
-36.08469594051277
 30
0.0
 11
114.44603408978723
 21
-36.08469594051277
 31
0.0
  0
LINE
  5
5C
330
17
100
AcDbEntity
  8
ENGRAVE
100
AcDbLine
 10
109.00434401116537
 20
-41.04241719908025
 30
0.0
 11
112.76311449430901
 21
-41.04241719908025
 31
0.0
  0
LINE
  5
5D
330
17
100
AcDbEntity
  8
ENGRAVE
100
AcDbLine
 10
107.17002577130926
 20
-45.92201188381077
 30
0.0
 11
110.86554390135441
 21
-45.92201188381077
 31
0.0
  0
LINE
  5
5E
330
17
100
AcDbEntity
  8
ENGRAVE
100
AcDbLine
 10
105.1317032962514
 20
-50.71419140888392
 30
0.0
 11
108.75693444439801
 21
-50.71419140888392
 31
0.0
  0
LINE
  5
5F
330
17
100
AcDbEntity
  8
ENGRAVE
100
AcDbLine
 10
102.89325664867373
 20
-55.40983358820406
 30
0.0
 11
106.44129998138662
 21
-55.40983358820406
 31
0.0
  0
LINE
  5
60
330
17
100
AcDbEntity
  8
ENGRAVE
100
AcDbLine
 10
96.99484522385714
 20
-59.99999999999997
 30
0.0
 11
103.92304845413264
 21
-59.99999999999997
 31
0.0
  0
LINE
  5
61
330
17
100
AcDbEntity
  8
ENGRAVE
100
AcDbLine
 10
97.83340771429474
 20
-64.47595300161888
 30
0.0
 11
101.20697349754627
 21
-64.47595300161888
 31
0.0
  0
LINE
  5
62
330
17
100
AcDbEntity
  8
ENGRAVE
100
AcDbLine
 10
95.02163713752303
 20
-68.82917236212553
 30
0.0
 11
98.29824531467901
 21
-68.82917236212553
 31
0.0
  0
LINE
  5
63
330
17
100
AcDbEntity
  8
ENGRAVE
100
AcDbLine
 10
92.02898747378327
 20
-73.05137148104647
 30
0.0
 11
95.20240083494822
 21
-73.05137148104647
 31
0.0
  0
LINE
  5
64
330
17
100
AcDbEntity
  8
ENGRAVE
100
AcDbLine
 10
88.86115540180145
 20
-77.13451316238472
 30
0.0
 11
91.92533317427736
 21
-77.13451316238472
 31
0.0
  0
LINE
  5
65
330
17
100
AcDbEntity
  8
ENGRAVE
100
AcDbLine
 10
85.5241710699744
 20
-81.07082491387924
 30
0.0
 11
88.4732804172149
 21
-81.07082491387924
 31
0.0
  0
LINE
  5
66
330
17
100
AcDbEntity
  8
ENGRAVE
100
AcDbLine
 10
79.19595949289332
 20
-84.85281374238569
 30
0.0
 11
84.8528137423857
 21
-84.85281374238569
 31
0.0
  0
LINE
  5
67
330
17
100
AcDbEntity
  8
ENGRAVE
100
AcDbLine
 10
78.3684640834166
 20
-88.47328041721488
 30
0.0
 11
81.07082491387925
 21
-88.47328041721488
 31
0.0
  0
LINE
  5
68
330
17
100
AcDbEntity
  8
ENGRAVE
100
AcDbLine
 10
74.56336272363858
 20
-91.92533317427734
 30
0.0
 11
77.13451316238474
 21
-91.92533317427734
 31
0.0
  0
LINE
  5
69
330
17
100
AcDbEntity
  8
ENGRAVE
100
AcDbLine
 10
70.61632576501162
 20
-95.20240083494821
 30
0.0
 11
73.0513714810465
 21
-95.20240083494821
 31
0.0
  0
LINE
  5
6A
330
17
100
AcDbEntity
  8
ENGRAVE
100
AcDbLine
 10
66.53486661672133
 20
-98.29824531467904
 30
0.0
 11
68.82917236212552
 21
-98.29824531467904
 31
0.0
  0
LINE
  5
6B
330
17
100
AcDbEntity
  8
ENGRAVE
100
AcDbLine
 10
62.32675456823156
 20
-101.20697349754629
 30
0.0
 11
64.47595300161885
 21
-101.20697349754629
 31
0.0
  0
LINE
  5
6C
330
17
100
AcDbEntity
  8
ENGRAVE
100
AcDbLine
 10
55.99999999999999
 20
-103.92304845413264
 30
0.0
 11
59.99999999999999
 21
-103.92304845413264
 31
0.0
  0
LINE
  5
6D
330
17
100
AcDbEntity
  8
ENGRAVE
100
AcDbLine
 10
53.562839135263935
 20
-106.4412999813866
 30
0.0
 11
55.409833588204066
 21
-106.4412999813866
 31
0.0
  0
LINE
  5
6E
330
17
100
AcDbEntity
  8
ENGRAVE
100
AcDbLine
 10
49.02371836192114
 20
-108.756934444398
 30
0.0
 11
50.71419140888394
 21
-108.756934444398
 31
0.0
  0
LINE
  5
6F
330
17
100
AcDbEntity
  8
ENGRAVE
100
AcDbLine
 10
44.39127815435043
 20
-110.86554390135441
 30
0.0
 11
45.92201188381079
 21
-110.86554390135441
 31
0.0
  0
LINE
  5
70
330
17
100
AcDbEntity
  8
ENGRAVE
100
AcDbLine
 10
39.67433662577759
 20
-112.763114494309
 30
0.0
 11
41.04241719908026
 21
-112.763114494309
 31
0.0
  0
LINE
  5
71
330
17
100
AcDbEntity
  8
ENGRAVE
100
AcDbLine
 10
34.88187274249571
 20
-114.44603408978722
 30
0.0
 11
36.0846959405128
 21
-114.44603408978722
 31
0.0
  0
LINE
  5
72
330
17
100
AcDbEntity
  8
ENGRAVE
100
AcDbLine
 10
28.987733051482355
 20
-115.91109915468819
 30
0.0
 11
31.05828541230252
 21
-115.91109915468819
 31
0.0
  0
LINE
  5
73
330
17
100
AcDbEntity
  8
ENGRAVE
100
AcDbLine
 10
25.106995216819918
 20
-117.15552085439201
 30
0.0
 11
25.972753672572328
 21
-117.15552085439201
 31
0.0
  0
LINE
  5
74
330
17
100
AcDbEntity
  8
ENGRAVE
100
AcDbLine
 10
20.14318860936391
 20
-118.17693036146497
 30
0.0
 11
20.837781320031635
 21
-118.17693036146497
 31
0.0
  0
LINE
  5
75
330
17
100
AcDbEntity
  8
ENGRAVE
100
AcDbLine
 10
15.141038297525983
 20
-118.97338336485724
 30
0.0
 11
15.663143066406189
 21
-118.97338336485724
 31
0.0
  0
LINE
  5
76
330
17
100
AcDbEntity
  8
ENGRAVE
100
AcDbLine
 10
10.110066158728351
 20
-119.54336377100947
 30
0.0
 11
10.458689129718984
 21
-119.54336377100947
 31
0.0
  0
LINE
  5
77
330
17
100
AcDbEntity
  8
ENGRAVE
100
AcDbLine
 10
5.059848934378984
 20
-119.88578658982294
 30
0.0
 11
5.234326483840328
 21
-119.88578658982294
 31
0.0
  0
LINE
  5
78
330
17
100
AcDbEntity
  8
ENGRAVE
100
AcDbLine
 10
1.3716044150450356e-14
 20
-120.0
 30
0.0
 11
1.469576158976824e-14
 21
-120.0
 31
0.0
  0
LINE
  5
79
330
17
100
AcDbEntity
  8
ENGRAVE
100
AcDbLine
 10
-5.059848934378956
 20
-119.88578658982294
 30
0.0
 11
-5.234326483840299
 21
-119.88578658982294
 31
0.0
  0
LINE
  5
7A
330
17
100
AcDbEntity
  8
ENGRAVE
100
AcDbLine
 10
-10.110066158728321
 20
-119.54336377100947
 30
0.0
 11
-10.458689129718953
 21
-119.54336377100947
 31
0.0
  0
LINE
  5
7B
330
17
100
AcDbEntity
  8
ENGRAVE
100
AcDbLine
 10
-15.141038297525954
 20
-118.97338336485726
 30
0.0
 11
-15.663143066406159
 21
-118.97338336485726
 31
0.0
  0
LINE
  5
7C
330
17
100
AcDbEntity
  8
ENGRAVE
100
AcDbLine
 10
-20.143188609363936
 20
-118.17693036146497
 30
0.0
 11
-20.837781320031656
 21
-118.17693036146497
 31
0.0
  0
LINE
  5
7D
330
17
100
AcDbEntity
  8
ENGRAVE
100
AcDbLine
 10
-25.10699521681994
 20
-117.15552085439201
 30
0.0
 11
-25.972753672572352
 21
-117.15552085439201
 31
0.0
  0
LINE
  5
7E
330
17
100
AcDbEntity
  8
ENGRAVE
100
AcDbLine
 10
-28.98773305148233
 20
-115.9110991546882
 30
0.0
 11
-31.058285412302496
 21
-115.9110991546882
 31
0.0
  0
LINE
  5
7F
330
17
100
AcDbEntity
  8
ENGRAVE
100
AcDbLine
 10
-34.88187274249567
 20
-114.44603408978723
 30
0.0
 11
-36.084695940512766
 21
-114.44603408978723
 31
0.0
  0
LINE
  5
80
330
17
100
AcDbEntity
  8
ENGRAVE
100
AcDbLine
 10
-39.67433662577756
 20
-112.76311449430901
 30
0.0
 11
-41.04241719908024
 21
-112.76311449430901
 31
0.0
  0
LINE
  5
81
330
17
100
AcDbEntity
  8
ENGRAVE
100
AcDbLine
 10
-44.3912781543504
 20
-110.86554390135443
 30
0.0
 11
-45.92201188381076
 21
-110.86554390135443
 31
0.0
  0
LINE
  5
82
330
17
100
AcDbEntity
  8
ENGRAVE
100
AcDbLine
 10
-49.02371836192111
 20
-108.75693444439801
 30
0.0
 11
-50.71419140888391
 21
-108.75693444439801
 31
0.0
  0
LINE
  5
83
330
17
100
AcDbEntity
  8
ENGRAVE
100
AcDbLine
 10
-53.56283913526391
 20
-106.44129998138662
 30
0.0
 11
-55.409833588204044
 21
-106.44129998138662
 31
0.0
  0
LINE
  5
84
330
17
100
AcDbEntity
  8
ENGRAVE
100
AcDbLine
 10
-56.000000000000014
 20
-103.92304845413263
 30
0.0
 11
-60.000000000000014
 21
-103.92304845413263
 31
0.0
  0
LINE
  5
85
330
17
100
AcDbEntity
  8
ENGRAVE
100
AcDbLine
 10
-62.32675456823157
 20
-101.20697349754627
 30
0.0
 11
-64.47595300161886
 21
-101.20697349754627
 31
0.0
  0
LINE
  5
86
330
17
100
AcDbEntity
  8
ENGRAVE
100
AcDbLine
 10
-66.53486661672136
 20
-98.29824531467902
 30
0.0
 11
-68.82917236212553
 21
-98.29824531467902
 31
0.0
  0
LINE
  5
87
330
17
100
AcDbEntity
  8
ENGRAVE
100
AcDbLine
 10
-70.6163257650116
 20
-95.20240083494822
 30
0.0
 11
-73.05137148104647
 21
-95.20240083494822
 31
0.0
  0
LINE
  5
88
330
17
100
AcDbEntity
  8
ENGRAVE
100
AcDbLine
 10
-74.56336272363855
 20
-91.92533317427736
 30
0.0
 11
-77.1345131623847
 21
-91.92533317427736
 31
0.0
  0
LINE
  5
89
330
17
100
AcDbEntity
  8
ENGRAVE
100
AcDbLine
 10
-78.36846408341657
 20
-88.4732804172149
 30
0.0
 11
-81.07082491387922
 21
-88.4732804172149
 31
0.0
  0
LINE
  5
8A
330
17
100
AcDbEntity
  8
ENGRAVE
100
AcDbLine
 10
-79.19595949289331
 20
-84.85281374238572
 30
0.0
 11
-84.85281374238569
 21
-84.85281374238572
 31
0.0
  0
LINE
  5
8B
330
17
100
AcDbEntity
  8
ENGRAVE
100
AcDbLine
 10
-85.52417106997437
 20
-81.07082491387925
 30
0.0
 11
-88.47328041721487
 21
-81.07082491387925
 31
0.0
  0
LINE
  5
8C
330
17
100
AcDbEntity
  8
ENGRAVE
100
AcDbLine
 10
-88.86115540180144
 20
-77.13451316238474
 30
0.0
 11
-91.92533317427734
 21
-77.13451316238474
 31
0.0
  0
LINE
  5
8D
330
17
100
AcDbEntity
  8
ENGRAVE
100
AcDbLine
 10
-92.02898747378325
 20
-73.0513714810465
 30
0.0
 11
-95.2024008349482
 21
-73.0513714810465
 31
0.0
  0
LINE
  5
8E
330
17
100
AcDbEntity
  8
ENGRAVE
100
AcDbLine
 10
-95.02163713752303
 20
-68.82917236212556
 30
0.0
 11
-98.298245314679
 21
-68.82917236212556
 31
0.0
  0
LINE
  5
8F
330
17
100
AcDbEntity
  8
ENGRAVE
100
AcDbLine
 10
-97.83340771429472
 20
-64.4759530016189
 30
0.0
 11
-101.20697349754626
 21
-64.4759530016189
 31
0.0
  0
LINE
  5
90
330
17
100
AcDbEntity
  8
ENGRAVE
100
AcDbLine
 10
-96.99484522385711
 20
-60.00000000000006
 30
0.0
 11
-103.92304845413261
 21
-60.00000000000006
 31
0.0
  0
LINE
  5
91
330
17
100
AcDbEntity
  8
ENGRAVE
100
AcDbLine
 10
-102.8932566486737
 20
-55.40983358820412
 30
0.0
 11
-106.44129998138658
 21
-55.40983358820412
 31
0.0
  0
LINE
  5
92
330
17
100
AcDbEntity
  8
ENGRAVE
100
AcDbLine
 10
-105.13170329625142
 20
-50.7141914088839
 30
0.0
 11
-108.75693444439801
 21
-50.7141914088839
 31
0.0
  0
LINE
  5
93
330
17
100
AcDbEntity
  8
ENGRAVE
100
AcDbLine
 10
-107.17002577130927
 20
-45.92201188381074
 30
0.0
 11
-110.86554390135443
 21
-45.92201188381074
 31
0.0
  0
LINE
  5
94
330
17
100
AcDbEntity
  8
ENGRAVE
100
AcDbLine
 10
-109.00434401116537
 20
-41.04241719908023
 30
0.0
 11
-112.76311449430901
 21
-41.04241719908023
 31
0.0
  0
LINE
  5
95
330
17
100
AcDbEntity
  8
ENGRAVE
100
AcDbLine
 10
-110.63116628679433
 20
-36.08469594051275
 30
0.0
 11
-114.44603408978723
 21
-36.08469594051275
 31
0.0
  0
LINE
  5
96
330
17
100
AcDbEntity
  8
ENGRAVE
100
AcDbLine
 10
-108.18369254437565
 20
-31.058285412302475
 30
0.0
 11
-115.9110991546882
 21
-31.058285412302475
 31
0.0
  0
LINE
  5
97
330
17
100
AcDbEntity
  8
ENGRAVE
100
AcDbLine
 10
-113.25033682591227
 20
-25.97275367257234
 30
0.0
 11
-117.15552085439201
 21
-25.97275367257234
 31
0.0
  0
LINE
  5
98
330
17
100
AcDbEntity
  8
ENGRAVE
100
AcDbLine
 10
-114.23769934941613
 20
-20.837781320031638
 30
0.0
 11
-118.17693036146497
 21
-20.837781320031638
 31
0.0
  0
LINE
  5
99
330
17
100
AcDbEntity
  8
ENGRAVE
100
AcDbLine
 10
-115.007603919362
 20
-15.663143066406196
 30
0.0
 11
-118.97338336485724
 21
-15.663143066406196
 31
0.0
  0
LINE
  5
9A
330
17
100
AcDbEntity
  8
ENGRAVE
100
AcDbLine
 10
-115.55858497864249
 20
-10.45868912971899
 30
0.0
 11
-119.54336377100947
 21
-10.45868912971899
 31
0.0
  0
LINE
  5
9B
330
17
100
AcDbEntity
  8
ENGRAVE
100
AcDbLine
 10
-115.8895937034955
 20
-5.234326483840336
 30
0.0
 11
-119.88578658982294
 21
-5.234326483840336
 31
0.0
  0
LINE
  5
9C
330
17
100
AcDbEntity
  8
ENGRAVE
100
AcDbLine
 10
-112.0
 20
-2.2043642384652355e-14
 30
0.0
 11
-120.0
 21
-2.2043642384652355e-14
 31
0.0
  0
LINE
  5
9D
330
17
100
AcDbEntity
  8
ENGRAVE
100
AcDbLine
 10
-115.8895937034955
 20
5.234326483840292
 30
0.0
 11
-119.88578658982294
 21
5.234326483840292
 31
0.0
  0
LINE
  5
9E
330
17
100
AcDbEntity
  8
ENGRAVE
100
AcDbLine
 10
-115.55858497864249
 20
10.458689129718946
 30
0.0
 11
-119.54336377100947
 21
10.458689129718946
 31
0.0
  0
LINE
  5
9F
330
17
100
AcDbEntity
  8
ENGRAVE
100
AcDbLine
 10
-115.00760391936201
 20
15.663143066406152
 30
0.0
 11
-118.97338336485726
 21
15.663143066406152
 31
0.0
  0
LINE
  5
A0
330
17
100
AcDbEntity
  8
ENGRAVE
100
AcDbLine
 10
-114.23769934941615
 20
20.837781320031596
 30
0.0
 11
-118.17693036146497
 21
20.837781320031596
 31
0.0
  0
LINE
  5
A1
330
17
100
AcDbEntity
  8
ENGRAVE
100
AcDbLine
 10
-113.25033682591229
 20
25.972753672572296
 30
0.0
 11
-117.15552085439202
 21
25.972753672572296
 31
0.0
  0
LINE
  5
A2
330
17
100
AcDbEntity
  8
ENGRAVE
100
AcDbLine
 10
-108.18369254437566
 20
31.058285412302435
 30
0.0
 11
-115.91109915468822
 21
31.058285412302435
 31
0.0
  0
LINE
  5
A3
330
17
100
AcDbEntity
  8
ENGRAVE
100
AcDbLine
 10
-110.63116628679431
 20
36.084695940512816
 30
0.0
 11
-114.44603408978722
 21
36.084695940512816
 31
0.0
  0
LINE
  5
A4
330
17
100
AcDbEntity
  8
ENGRAVE
100
AcDbLine
 10
-109.00434401116536
 20
41.042417199080276
 30
0.0
 11
-112.763114494309
 21
41.042417199080276
 31
0.0
  0
LINE
  5
A5
330
17
100
AcDbEntity
  8
ENGRAVE
100
AcDbLine
 10
-107.17002577130926
 20
45.922011883810804
 30
0.0
 11
-110.8655439013544
 21
45.922011883810804
 31
0.0
  0
LINE
  5
A6
330
17
100
AcDbEntity
  8
ENGRAVE
100
AcDbLine
 10
-105.13170329625137
 20
50.714191408883956
 30
0.0
 11
-108.75693444439798
 21
50.714191408883956
 31
0.0
  0
LINE
  5
A7
330
17
100
AcDbEntity
  8
ENGRAVE
100
AcDbLine
 10
-102.89325664867371
 20
55.40983358820409
 30
0.0
 11
-106.44129998138659
 21
55.40983358820409
 31
0.0
  0
LINE
  5
A8
330
17
100
AcDbEntity
  8
ENGRAVE
100
AcDbLine
 10
-96.99484522385713
 20
60.000000000000014
 30
0.0
 11
-103.92304845413263
 21
60.000000000000014
 31
0.0
  0
LINE
  5
A9
330
17
100
AcDbEntity
  8
ENGRAVE
100
AcDbLine
 10
-97.83340771429474
 20
64.47595300161886
 30
0.0
 11
-101.20697349754629
 21
64.47595300161886
 31
0.0
  0
LINE
  5
AA
330
17
100
AcDbEntity
  8
ENGRAVE
100
AcDbLine
 10
-95.02163713752304
 20
68.82917236212552
 30
0.0
 11
-98.29824531467902
 21
68.82917236212552
 31
0.0
  0
LINE
  5
AB
330
17
100
AcDbEntity
  8
ENGRAVE
100
AcDbLine
 10
-92.02898747378327
 20
73.05137148104646
 30
0.0
 11
-95.20240083494822
 21
73.05137148104646
 31
0.0
  0
LINE
  5
AC
330
17
100
AcDbEntity
  8
ENGRAVE
100
AcDbLine
 10
-88.86115540180147
 20
77.1345131623847
 30
0.0
 11
-91.92533317427737
 21
77.1345131623847
 31
0.0
  0
LINE
  5
AD
330
17
100
AcDbEntity
  8
ENGRAVE
100
AcDbLine
 10
-85.5241710699744
 20
81.07082491387922
 30
0.0
 11
-88.47328041721491
 21
81.07082491387922
 31
0.0
  0
LINE
  5
AE
330
17
100
AcDbEntity
  8
ENGRAVE
100
AcDbLine
 10
-79.19595949289334
 20
84.85281374238568
 30
0.0
 11
-84.85281374238572
 21
84.85281374238568
 31
0.0
  0
LINE
  5
AF
330
17
100
AcDbEntity
  8
ENGRAVE
100
AcDbLine
 10
-78.36846408341661
 20
88.47328041721487
 30
0.0
 11
-81.07082491387925
 21
88.47328041721487
 31
0.0
  0
LINE
  5
B0
330
17
100
AcDbEntity
  8
ENGRAVE
100
AcDbLine
 10
-74.56336272363859
 20
91.92533317427734
 30
0.0
 11
-77.13451316238475
 21
91.92533317427734
 31
0.0
  0
LINE
  5
B1
330
17
100
AcDbEntity
  8
ENGRAVE
100
AcDbLine
 10
-70.61632576501164
 20
95.2024008349482
 30
0.0
 11
-73.05137148104652
 21
95.2024008349482
 31
0.0
  0
LINE
  5
B2
330
17
100
AcDbEntity
  8
ENGRAVE
100
AcDbLine
 10
-66.53486661672139
 20
98.298245314679
 30
0.0
 11
-68.82917236212558
 21
98.298245314679
 31
0.0
  0
LINE
  5
B3
330
17
100
AcDbEntity
  8
ENGRAVE
100
AcDbLine
 10
-62.32675456823161
 20
101.20697349754626
 30
0.0
 11
-64.4759530016189
 21
101.20697349754626
 31
0.0
  0
LINE
  5
B4
330
17
100
AcDbEntity
  8
ENGRAVE
100
AcDbLine
 10
-56.00000000000005
 20
103.92304845413261
 30
0.0
 11
-60.00000000000006
 21
103.92304845413261
 31
0.0
  0
LINE
  5
B5
330
17
100
AcDbEntity
  8
ENGRAVE
100
AcDbLine
 10
-53.5628391352639
 20
106.44129998138662
 30
0.0
 11
-55.40983358820404
 21
106.44129998138662
 31
0.0
  0
LINE
  5
B6
330
17
100
AcDbEntity
  8
ENGRAVE
100
AcDbLine
 10
-49.02371836192111
 20
108.75693444439801
 30
0.0
 11
-50.714191408883906
 21
108.75693444439801
 31
0.0
  0
LINE
  5
B7
330
17
100
AcDbEntity
  8
ENGRAVE
100
AcDbLine
 10
-44.39127815435039
 20
110.86554390135443
 30
0.0
 11
-45.92201188381075
 21
110.86554390135443
 31
0.0
  0
LINE
  5
B8
330
17
100
AcDbEntity
  8
ENGRAVE
100
AcDbLine
 10
-39.674336625777556
 20
112.76311449430901
 30
0.0
 11
-41.042417199080234
 21
112.76311449430901
 31
0.0
  0
LINE
  5
B9
330
17
100
AcDbEntity
  8
ENGRAVE
100
AcDbLine
 10
-34.881872742495666
 20
114.44603408978723
 30
0.0
 11
-36.08469594051276
 21
114.44603408978723
 31
0.0
  0
LINE
  5
BA
330
17
100
AcDbEntity
  8
ENGRAVE
100
AcDbLine
 10
-28.987733051482316
 20
115.9110991546882
 30
0.0
 11
-31.05828541230248
 21
115.9110991546882
 31
0.0
  0
LINE
  5
BB
330
17
100
AcDbEntity
  8
ENGRAVE
100
AcDbLine
 10
-25.106995216819932
 20
117.15552085439201
 30
0.0
 11
-25.972753672572345
 21
117.15552085439201
 31
0.0
  0
LINE
  5
BC
330
17
100
AcDbEntity
  8
ENGRAVE
100
AcDbLine
 10
-20.143188609363925
 20
118.17693036146497
 30
0.0
 11
-20.837781320031645
 21
118.17693036146497
 31
0.0
  0
LINE
  5
BD
330
17
100
AcDbEntity
  8
ENGRAVE
100
AcDbLine
 10
-15.141038297525995
 20
118.97338336485724
 30
0.0
 11
-15.663143066406203
 21
118.97338336485724
 31
0.0
  0
LINE
  5
BE
330
17
100
AcDbEntity
  8
ENGRAVE
100
AcDbLine
 10
-10.110066158728365
 20
119.54336377100947
 30
0.0
 11
-10.458689129718998
 21
119.54336377100947
 31
0.0
  0
LINE
  5
BF
330
17
100
AcDbEntity
  8
ENGRAVE
100
AcDbLine
 10
-5.059848934378999
 20
119.88578658982294
 30
0.0
 11
-5.234326483840343
 21
119.88578658982294
 31
0.0
  0
TEXT
  5
C0
330
17
100
AcDbEntity
  8
ENGRAVE
100
AcDbText
 10
0.0
 20
-10.0
 30
0.0
 40
5.0
  1
12 HOUR / 5 MIN MINOR
 11
0.0
 21
-10.0
 31
0.0
100
AcDbText
  0
CIRCLE
  5
C1
330
17
100
AcDbEntity
  8
CUT
100
AcDbCircle
 10
0.0
 20
0.0
 30
0.0
 40
4.0
  0
ENDSEC
  0
SECTION
  2
OBJECTS
  0
DICTIONARY
  5
A
330
0
100
AcDbDictionary
281
1
  3
ACAD_COLOR
350
B
  3
ACAD_GROUP
350
C
  3
ACAD_LAYOUT
350
D
  3
ACAD_MATERIAL
350
E
  3
ACAD_MLEADERSTYLE
350
F
  3
ACAD_MLINESTYLE
350
10
  3
ACAD_PLOTSETTINGS
350
11
  3
ACAD_PLOTSTYLENAME
350
12
  3
ACAD_SCALELIST
350
14
  3
ACAD_TABLESTYLE
350
15
  3
ACAD_VISUALSTYLE
350
16
  3
EZDXF_META
350
2D
  0
DICTIONARY
  5
B
330
A
100
AcDbDictionary
281
1
  0
DICTIONARY
  5
C
330
A
100
AcDbDictionary
281
1
  0
DICTIONARY
  5
D
330
A
100
AcDbDictionary
281
1
  3
Model
350
1A
  3
Layout1
350
1E
  0
DICTIONARY
  5
E
330
A
100
AcDbDictionary
281
1
  3
ByBlock
350
1F
  3
ByLayer
350
20
  3
Global
350
21
  0
DICTIONARY
  5
F
330
A
100
AcDbDictionary
281
1
  3
Standard
350
2C
  0
DICTIONARY
  5
10
330
A
100
AcDbDictionary
281
1
  3
Standard
350
22
  0
DICTIONARY
  5
11
330
A
100
AcDbDictionary
281
1
  0
ACDBDICTIONARYWDFLT
  5
12
330
A
100
AcDbDictionary
281
1
  3
Normal
350
13
100
AcDbDictionaryWithDefault
340
13
  0
ACDBPLACEHOLDER
  5
13
330
12
  0
DICTIONARY
  5
14
330
A
100
AcDbDictionary
281
1
  0
DICTIONARY
  5
15
330
A
100
AcDbDictionary
281
1
  0
DICTIONARY
  5
16
330
A
100
AcDbDictionary
281
1
  0
LAYOUT
  5
1A
330
D
100
AcDbPlotSettings
  1

  4
A3
  6

 40
7.5
 41
20.0
 42
7.5
 43
20.0
 44
420.0
 45
297.0
 46
0.0
 47
0.0
 48
0.0
 49
0.0
140
0.0
141
0.0
142
1.0
143
1.0
 70
1024
 72
1
 73
0
 74
5
  7

 75
16
 76
0
 77
2
 78
300
147
1.0
148
0.0
149
0.0
100
AcDbLayout
  1
Model
 70
1
 71
0
 10
0.0
 20
0.0
 11
420.0
 21
297.0
 12
0.0
 22
0.0
 32
0.0
 14
1e+20
 24
1e+20
 34
1e+20
 15
-1e+20
 25
-1e+20
 35
-1e+20
146
0.0
 13
0.0
 23
0.0
 33
0.0
 16
1.0
 26
0.0
 36
0.0
 17
0.0
 27
1.0
 37
0.0
 76
1
330
17
  0
LAYOUT
  5
1E
330
D
100
AcDbPlotSettings
  1

  4
A3
  6

 40
7.5
 41
20.0
 42
7.5
 43
20.0
 44
420.0
 45
297.0
 46
0.0
 47
0.0
 48
0.0
 49
0.0
140
0.0
141
0.0
142
1.0
143
1.0
 70
0
 72
1
 73
0
 74
5
  7

 75
16
 76
0
 77
2
 78
300
147
1.0
148
0.0
149
0.0
100
AcDbLayout
  1
Layout1
 70
1
 71
1
 10
0.0
 20
0.0
 11
420.0
 21
297.0
 12
0.0
 22
0.0
 32
0.0
 14
1e+20
 24
1e+20
 34
1e+20
 15
-1e+20
 25
-1e+20
 35
-1e+20
146
0.0
 13
0.0
 23
0.0
 33
0.0
 16
1.0
 26
0.0
 36
0.0
 17
0.0
 27
1.0
 37
0.0
 76
1
330
1B
  0
MATERIAL
  5
1F
102
{ACAD_REACTORS
330
E
102
}
330
E
100
AcDbMaterial
  1
ByBlock
  2

 70
0
 40
1.0
 71
1
 41
1.0
 91
-1023410177
 42
1.0
 72
1
  3

 73
1
 74
1
 75
1
 44
0.5
 73
0
 45
1.0
 46
1.0
 77
1
  4

 78
1
 79
1
170
1
 48
1.0
171
1
  6

172
1
173
1
174
1
140
1.0
141
1.0
175
1
  7

176
1
177
1
178
1
143
1.0
179
1
  8

270
1
271
1
272
1
145
1.0
146
1.0
273
1
  9

274
1
275
1
276
1
 42
1.0
 72
1
  3

 73
1
 74
1
 75
1
 94
63
  0
MATERIAL
  5
20
102
{ACAD_REACTORS
330
E
102
}
330
E
100
AcDbMaterial
  1
ByLayer
  2

 70
0
 40
1.0
 71
1
 41
1.0
 91
-1023410177
 42
1.0
 72
1
  3

 73
1
 74
1
 75
1
 44
0.5
 73
0
 45
1.0
 46
1.0
 77
1
  4

 78
1
 79
1
170
1
 48
1.0
171
1
  6

172
1
173
1
174
1
140
1.0
141
1.0
175
1
  7

176
1
177
1
178
1
143
1.0
179
1
  8

270
1
271
1
272
1
145
1.0
146
1.0
273
1
  9

274
1
275
1
276
1
 42
1.0
 72
1
  3

 73
1
 74
1
 75
1
 94
63
  0
MATERIAL
  5
21
102
{ACAD_REACTORS
330
E
102
}
330
E
100
AcDbMaterial
  1
Global
  2

 70
0
 40
1.0
 71
1
 41
1.0
 91
-1023410177
 42
1.0
 72
1
  3

 73
1
 74
1
 75
1
 44
0.5
 73
0
 45
1.0
 46
1.0
 77
1
  4

 78
1
 79
1
170
1
 48
1.0
171
1
  6

172
1
173
1
174
1
140
1.0
141
1.0
175
1
  7

176
1
177
1
178
1
143
1.0
179
1
  8

270
1
271
1
272
1
145
1.0
146
1.0
273
1
  9

274
1
275
1
276
1
 42
1.0
 72
1
  3

 73
1
 74
1
 75
1
 94
63
  0
MLINESTYLE
  5
22
102
{ACAD_REACTORS
330
10
102
}
330
10
100
AcDbMlineStyle
  2
Standard
 70
0
  3

 62
256
 51
90.0
 52
90.0
 71
2
 49
0.5
 62
256
  6
BYLAYER
 49
-0.5
 62
256
  6
BYLAYER
  0
MLEADERSTYLE
  5
2C
102
{ACAD_REACTORS
330
F
102
}
330
F
100
AcDbMLeaderStyle
179
2
170
2
171
1
172
0
 90
2
 40
0.0
 41
0.0
173
1
 91
-1056964608
 92
-2
290
1
 42
2.0
291
1
 43
8.0
  3
Standard
 44
4.0
300

342
29
174
1
175
1
176
0
178
1
 93
-1056964608
 45
4.0
292
0
297
0
 46
4.0
 94
-1056964608
 47
1.0
 49
1.0
140
1.0
294
1
141
0.0
177
0
142
1.0
295
0
296
0
143
3.75
271
0
272
9
273
9
  0
DICTIONARY
  5
2D
330
A
100
AcDbDictionary
280
1
281
1
  3
CREATED_BY_EZDXF
350
2E
  3
WRITTEN_BY_EZDXF
350
C4
  0
DICTIONARYVAR
  5
2E
330
2D
100
DictionaryVariables
280
0
  1
1.4.2 @ 2000-01-01T00:00:00+00:00
  0
DICTIONARYVAR
  5
C4
330
2D
100
DictionaryVariables
280
0
  1
1.4.2 @ 2000-01-01T00:00:00+00:00
  0
ENDSEC
  0
EOF
